<svg xmlns="http://www.w3.org/2000/svg" viewBox="0 0 280 220" role="img" aria-label="Page is napping"><ellipse cx="140" cy="178" rx="125" ry="12" fill="#7b9b8f" opacity="0.18"/><ellipse cx="140" cy="158" rx="122" ry="26" fill="#7b9b8f" opacity="0.32"/><path d="M 25 158 Q 140 150 255 158" stroke="#5f7d72" stroke-width="1" fill="none" opacity="0.4"/><path d="M 80 132 Q 52 142 32 128 Q 12 112 22 90" stroke="#6b8fb5" stroke-width="14" stroke-linecap="round" fill="none"/><path d="M 22 90 Q 32 74 48 78 Q 58 86 54 98" stroke="#6b8fb5" stroke-width="7" stroke-linecap="round" fill="none"/><path d="M 80 136 Q 55 144 35 130" stroke="#4a6e94" stroke-width="5" stroke-linecap="round" fill="none" opacity="0.45"/><ellipse cx="140" cy="130" rx="62" ry="18" fill="#6b8fb5"/><path d="M 80 132 Q 140 150 200 132 Q 198 145 140 147 Q 82 145 80 132 Z" fill="#a8c4dd"/><ellipse cx="100" cy="120" rx="3.5" ry="2.2" fill="#4a6e94" opacity="0.7"/><ellipse cx="120" cy="116" rx="4" ry="2.5" fill="#4a6e94" opacity="0.7"/><ellipse cx="140" cy="115" rx="4.2" ry="2.6" fill="#4a6e94" opacity="0.7"/><ellipse cx="160" cy="116" rx="4" ry="2.5" fill="#4a6e94" opacity="0.7"/><ellipse cx="178" cy="120" rx="3.5" ry="2.2" fill="#4a6e94" opacity="0.7"/><path d="M 102 146 Q 98 154 92 160" stroke="#6b8fb5" stroke-width="11" stroke-linecap="round" fill="none"/><ellipse cx="90" cy="162" rx="7.5" ry="3.2" fill="#4a6e94"/><path d="M 86 162 Q 78 164 74 167" stroke="#4a6e94" stroke-width="2" fill="none" stroke-linecap="round"/><path d="M 71 167 L 68 168" stroke="#4a6e94" stroke-width="1.6" stroke-linecap="round"/><path d="M 88 164 Q 81 170 77 176" stroke="#4a6e94" stroke-width="2" fill="none" stroke-linecap="round"/><path d="M 76 177 L 73 179" stroke="#4a6e94" stroke-width="1.6" stroke-linecap="round"/><path d="M 90 165 L 90 178" stroke="#4a6e94" stroke-width="2" stroke-linecap="round"/><path d="M 90 179 L 91 181" stroke="#4a6e94" stroke-width="1.6" stroke-linecap="round"/><path d="M 92 164 Q 96 171 100 176" stroke="#4a6e94" stroke-width="2" fill="none" stroke-linecap="round"/><path d="M 101 177 L 104 179" stroke="#4a6e94" stroke-width="1.6" stroke-linecap="round"/><path d="M 95 162 Q 102 164 106 167" stroke="#4a6e94" stroke-width="2" fill="none" stroke-linecap="round"/><path d="M 107 167 L 110 168" stroke="#4a6e94" stroke-width="1.6" stroke-linecap="round"/><path d="M 178 146 Q 182 154 188 160" stroke="#6b8fb5" stroke-width="11" stroke-linecap="round" fill="none"/><ellipse cx="190" cy="162" rx="7.5" ry="3.2" fill="#4a6e94"/><path d="M 184 162 Q 178 164 174 167" stroke="#4a6e94" stroke-width="2" fill="none" stroke-linecap="round"/><path d="M 171 167 L 168 168" stroke="#4a6e94" stroke-width="1.6" stroke-linecap="round"/><path d="M 186 164 Q 182 171 179 176" stroke="#4a6e94" stroke-width="2" fill="none" stroke-linecap="round"/><path d="M 178 177 L 175 179" stroke="#4a6e94" stroke-width="1.6" stroke-linecap="round"/><path d="M 190 165 L 190 178" stroke="#4a6e94" stroke-width="2" stroke-linecap="round"/><path d="M 190 179 L 189 181" stroke="#4a6e94" stroke-width="1.6" stroke-linecap="round"/><path d="M 194 164 Q 198 171 202 176" stroke="#4a6e94" stroke-width="2" fill="none" stroke-linecap="round"/><path d="M 203 177 L 206 179" stroke="#4a6e94" stroke-width="1.6" stroke-linecap="round"/><path d="M 196 162 Q 202 164 206 167" stroke="#4a6e94" stroke-width="2" fill="none" stroke-linecap="round"/><path d="M 207 167 L 210 168" stroke="#4a6e94" stroke-width="1.6" stroke-linecap="round"/><path d="M 202 119 Q 220 116 234 122 Q 245 130 238 138 Q 224 143 206 142 Q 198 138 198 130 Q 199 122 202 119 Z" fill="#6b8fb5"/><path d="M 200 138 Q 220 142 232 138 Q 224 145 212 145 Q 202 143 200 138 Z" fill="#a8c4dd"/><path d="M 198 126 Q 202 134 204 138" stroke="#4a6e94" stroke-width="0.9" fill="none" opacity="0.5"/><path d="M 214 124 Q 220 127 226 124" stroke="#2c3e50" stroke-width="1.8" fill="none" stroke-linecap="round"/><line x1="215" y1="123" x2="214" y2="120" stroke="#2c3e50" stroke-width="0.8" stroke-linecap="round"/><line x1="225" y1="123" x2="226" y2="120" stroke="#2c3e50" stroke-width="0.8" stroke-linecap="round"/><circle cx="235" cy="130" r="1" fill="#2c3e50"/><path d="M 226 135 Q 230 138 234 135" stroke="#2c3e50" stroke-width="1" fill="none" stroke-linecap="round"/><path d="M 240 132 Q 247 133 248 136" stroke="#c9826b" stroke-width="1.5" fill="none" stroke-linecap="round"/><text x="200" y="78" font-family="-apple-system, system-ui, sans-serif" font-size="11" fill="#c9826b" opacity="0.6" font-weight="600">z</text><text x="214" y="62" font-family="-apple-system, system-ui, sans-serif" font-size="15" fill="#c9826b" opacity="0.8" font-weight="600">z</text><text x="230" y="44" font-family="-apple-system, system-ui, sans-serif" font-size="20" fill="#c9826b" font-weight="600">Z</text></svg>
