<svg xmlns="http://www.w3.org/2000/svg" viewBox="0 0 200 200" role="img" aria-label="Image Not Found"><rect width="200" height="200" fill="#faf7f2"/><g transform="translate(46 48) rotate(-3 52 39)"><rect x="0" y="0" width="104" height="78" rx="6" fill="none" stroke="#8c8672" stroke-width="3" stroke-dasharray="6 4"/><line x1="6" y1="6" x2="98" y2="72" stroke="#c9826b" stroke-width="1.6" opacity="0.3"/></g><g transform="translate(106 138)" stroke="#4a6e94" stroke-linecap="round" fill="none"><path d="M -14 0 Q -28 -3 -34 -12 Q -38 -18 -32 -20" stroke="#6b8fb5" stroke-width="4.5"/><path d="M -32 -20 Q -28 -22 -26 -18" stroke="#6b8fb5" stroke-width="2.2"/></g><g transform="translate(106 138)"><ellipse cx="0" cy="0" rx="17" ry="6.5" fill="#6b8fb5"/><ellipse cx="0" cy="3" rx="13" ry="3" fill="#a8c4dd"/><circle cx="-7" cy="-3" r="1.4" fill="#4a6e94" opacity="0.7"/><circle cx="0" cy="-4" r="1.6" fill="#4a6e94" opacity="0.7"/><circle cx="7" cy="-3" r="1.4" fill="#4a6e94" opacity="0.7"/><g stroke="#4a6e94" stroke-width="1.4" stroke-linecap="round" fill="none"><path d="M -8 5 Q -10 9 -13 13"/><path d="M -8 5 L -8 13"/><path d="M -8 5 Q -6 9 -4 13"/><path d="M 8 5 Q 6 9 4 13"/><path d="M 8 5 L 8 13"/><path d="M 8 5 Q 10 9 13 13"/></g><path d="M 14 -3 Q 24 -3 27 1 Q 24 5 14 5 Z" fill="#6b8fb5"/><circle cx="21" cy="-0.5" r="1.4" fill="#2c3e50"/><path d="M 27 1 Q 32 1 32 3" stroke="#c9826b" stroke-width="1.2" fill="none" stroke-linecap="round"/></g><text x="100" y="178" font-family="-apple-system, system-ui, sans-serif" font-size="11" fill="#8c8672" text-anchor="middle" letter-spacing="2">Image Not Found</text></svg>
